# xmcd
#
# Track frame offsets: 
#        150
#        11087
#        42952
#        58137
#        76730
#        96437
#        108742
#        144100
#        164180
#        175207
#        185517
#        197827
#        215310
#        228722
#        240705
#
# Disc length: 3303 seconds
#
# Revision: 0
# Processed by: cddbd v1.5.1PL2 Copyright (c) Steve Scherf et al.
# Submitted via: ExactAudioCopy v0.95a5
#
DISCID=d70ce50f
DTITLE=Blind Arvella Gray - The Singing Drifter
DYEAR=2005
DGENRE=Blues
TTITLE0=There's More Pretty Girls Than One
TTITLE1=John Henry
TTITLE2=Arvella's Work Song
TTITLE3=Take Your Burden To The Lord
TTITLE4=When The Saints Go Marching In
TTITLE5=Standing By The Bedside Of A Neighbour
TTITLE6=Those Old Fashioned Alley Blues
TTITLE7=Gander Dancing Song
TTITLE8=Stand By Me
TTITLE9=What Will Your Record Be
TTITLE10=If I Could Hear My Mother Pray Again
TTITLE11=Motherless Children Have A Hard Time
TTITLE12=Take My Hand Precious Lord
TTITLE13=Cryin' Holy Unto The Lord
TTITLE14=Standing By The Bedside Of A Neighbour [Take 2]
EXTD=
EXTT0=
EXTT1=
EXTT2=
EXTT3=
EXTT4=
EXTT5=
EXTT6=
EXTT7=
EXTT8=
EXTT9=
EXTT10=
EXTT11=
EXTT12=
EXTT13=
EXTT14=
PLAYORDER=
